<svg xmlns="http://www.w3.org/2000/svg" width="136.297" height="83.85" viewBox="0 0 136.297 83.85">
    <defs>
        <style>
            .cls-1,.cls-2{fill:#191215}.cls-2{fill-rule:evenodd}
        </style>
    </defs>
    <g id="logo-vesti" transform="translate(-100.492 -302.769)">
        <g id="Grupo_363" data-name="Grupo 363" transform="translate(100.492 352.851)">
            <g id="Grupo_362" data-name="Grupo 362" transform="translate(0 2.281)">
                <path id="Caminho_184" d="M100.492 454.459h7.247l7.8 21.016 7.8-21.016h7.077l-12.064 30.053h-5.8z" class="cls-1" data-name="Caminho 184" transform="translate(-100.492 -454.459)"/>
                <path id="Caminho_185" d="M210.719 454.459h22.465v5.84H217.2v6.053h14.067v5.84H217.2v6.266h16.2v5.84h-22.681z" class="cls-1" data-name="Caminho 185" transform="translate(-172.669 -454.459)"/>
                <path id="Caminho_186" d="M385.753 460.512h-9.08v-6.053H401.4v6.053h-9.08V484.3h-6.565z" class="cls-1" data-name="Caminho 186" transform="translate(-281.336 -454.459)"/>
                <path id="Caminho_187" d="M476.313 454.459h6.565V484.3h-6.565z" class="cls-1" data-name="Caminho 187" transform="translate(-346.581 -454.459)"/>
            </g>
            <path id="Caminho_188" d="M294.883 471.255a21.4 21.4 0 0 0 4.619 2.908 12.344 12.344 0 0 0 5.182 1.079 6.31 6.31 0 0 0 3.494-.82 2.584 2.584 0 0 0 1.243-2.275v-.094a2.846 2.846 0 0 0-.259-1.243 2.622 2.622 0 0 0-.988-1.008 10.434 10.434 0 0 0-2.022-.938q-1.294-.468-3.362-.985a40.9 40.9 0 0 1-4.515-1.36 12.7 12.7 0 0 1-3.432-1.852 7.486 7.486 0 0 1-2.187-2.744 9.527 9.527 0 0 1-.776-4.08v-.094a9.518 9.518 0 0 1 .838-4.057 9.239 9.239 0 0 1 2.353-3.119 10.585 10.585 0 0 1 3.617-2.017 14.539 14.539 0 0 1 4.635-.7 19.644 19.644 0 0 1 6.636 1.079 19.268 19.268 0 0 1 5.557 3.1m-3.752 5.44a23.833 23.833 0 0 0-4.315-2.368 11.028 11.028 0 0 0-4.221-.867 5.109 5.109 0 0 0-3.166.82 2.493 2.493 0 0 0-1.055 2.04v.094a2.959 2.959 0 0 0 .306 1.384 2.766 2.766 0 0 0 1.105 1.055 10.391 10.391 0 0 0 2.186.891q1.387.422 3.5.985a33.688 33.688 0 0 1 4.443 1.477 12.419 12.419 0 0 1 3.292 1.97 7.512 7.512 0 0 1 2.022 2.7 9.155 9.155 0 0 1 .682 3.7v.094a10.159 10.159 0 0 1-.885 4.338 8.906 8.906 0 0 1-2.47 3.189 11.112 11.112 0 0 1-3.781 1.97 16.435 16.435 0 0 1-4.87.68 21.744 21.744 0 0 1-7.363-1.29 19.475 19.475 0 0 1-6.566-3.963" class="cls-1" data-name="Caminho 188" transform="translate(-224.985 -447.852)"/>
        </g>
        <g id="Grupo_364" data-name="Grupo 364" transform="translate(147.418 302.769)">
            <path id="Caminho_189" d="M278.283 362.178l-19.444-11.318v-1.823a4.191 4.191 0 1 0-5.341-4.023 1.184 1.184 0 1 0 2.368 0 1.789 1.789 0 1 1 1.789 1.806 1.19 1.19 0 0 0-1.184 1.2v2.844l-19.444 11.318a1.2 1.2 0 0 0 .6 2.229h40.054a1.2 1.2 0 0 0 .6-2.229zm-8.593-.969h-24.862l12.826-7.466 12.826 7.466z" class="cls-2" data-name="Caminho 189" transform="translate(-236.432 -327.682)"/>
            <path id="Caminho_190" d="M274.788 324.455a1.721 1.721 0 1 0 2.433 2.436 7.382 7.382 0 0 1 10.435 0 1.722 1.722 0 1 0 2.436-2.436 10.828 10.828 0 0 0-15.304 0z" class="cls-2" data-name="Caminho 190" transform="translate(-261.217 -314.895)"/>
            <path id="Caminho_191" d="M264.123 310.244a13.776 13.776 0 0 1 19.477 0 1.722 1.722 0 0 0 2.436-2.436 17.219 17.219 0 0 0-24.346 0 1.72 1.72 0 0 0 2.433 2.433z" class="cls-2" data-name="Caminho 191" transform="translate(-252.642 -302.769)"/>
        </g>
    </g>
</svg>
